ply
format ascii 1.0
element vertex 167
property float x
property float y
property float z
property uchar red
property uchar green
property uchar blue
end_header
-0.126759 -0.035284 0.685364 180 180 180
-0.388670 -0.059755 0.910401 180 180 180
-0.138459 -0.118262 0.969503 180 180 180
0.143493 -0.258470 0.770456 180 180 180
0.057617 0.017233 1.214240 180 180 180
0.138924 0.028307 1.144379 180 180 180
-0.095876 -0.153280 0.925090 180 180 180
0.269923 0.209910 1.162204 180 180 180
-0.050238 0.188453 0.806918 180 180 180
0.029513 -0.076840 1.227963 180 180 180
0.183701 -0.117553 0.580878 180 180 180
0.098271 -0.172747 0.694554 180 180 180
-0.263106 0.237658 1.064815 180 180 180
0.078910 0.084537 0.601696 180 180 180
0.122283 -0.047379 1.132982 180 180 180
0.018377 0.256097 0.758363 180 180 180
0.164631 0.092226 0.458151 180 180 180
-0.209746 0.022214 0.926956 180 180 180
0.206324 -0.128046 0.617045 180 180 180
-0.083896 -0.135192 0.719667 180 180 180
-0.024774 0.247194 1.029811 180 180 180
0.083618 -0.100064 1.224133 180 180 180
-0.075568 0.066620 0.849346 180 180 180
0.087459 -0.204737 0.891810 180 180 180
0.049090 0.076953 0.859509 180 180 180
0.252780 -0.144516 0.825220 180 180 180
0.271095 0.120859 1.085283 180 180 180
-0.066321 0.199517 1.166315 180 180 180
0.336974 0.133197 0.774862 180 180 180
-0.063925 0.088412 1.024190 180 180 180
-0.059270 0.074791 1.032950 180 180 180
0.062622 -0.192350 1.077651 180 180 180
0.208191 -0.019676 0.763590 180 180 180
-0.070610 0.211093 0.847333 180 180 180
-0.159667 -0.218743 1.123937 180 180 180
-0.123125 -0.057027 0.668441 180 180 180
-0.120768 -0.018586 1.066749 180 180 180
-0.098331 -0.225556 0.811421 180 180 180
0.351575 -0.239328 0.719216 180 180 180
-0.166232 -0.080455 0.656965 180 180 180
0.197221 -0.060435 0.974513 180 180 180
0.182542 0.173430 1.037037 180 180 180
-0.055239 0.011630 1.016936 180 180 180
-0.047582 -0.168885 0.633114 180 180 180
0.202248 -0.029280 0.721780 180 180 180
0.123574 0.323310 1.031245 180 180 180
-0.113261 0.197683 1.087199 180 180 180
0.364965 -0.112297 0.817286 180 180 180
-0.002611 -0.250476 0.732724 180 180 180
-0.050799 -0.153172 0.832838 180 180 180
0.098330 0.028969 0.681678 180 180 180
-0.071708 -0.158910 0.903763 180 180 180
0.125811 -0.150403 0.633836 180 180 180
-0.091109 -0.176827 0.621077 180 180 180
-0.078421 0.207439 0.689973 180 180 180
0.211556 -0.142956 0.659945 180 180 180
-0.155764 -0.005334 0.820709 180 180 180
-0.326054 -0.150966 0.711034 180 180 180
0.051599 -0.055551 0.570248 180 180 180
-0.005360 0.174031 0.929829 180 180 180
-0.082726 -0.033212 0.825898 180 180 180
-0.202029 0.159272 0.690300 180 180 180
0.003125 -0.228975 0.831306 180 180 180
0.172808 0.248846 0.888179 180 180 180
0.210663 -0.082016 0.745273 180 180 180
0.143860 -0.209827 0.788463 180 180 180
-0.062514 -0.129369 0.970858 180 180 180
0.183344 -0.054471 0.771309 180 180 180
0.004853 -0.255841 0.855375 180 180 180
0.073664 0.082356 1.061756 180 180 180
-0.102515 0.176121 0.953040 180 180 180
-0.057187 0.003214 0.825724 180 180 180
0.197268 0.006255 0.723564 180 180 180
0.195823 0.222612 0.803863 180 180 180
0.193727 0.038380 0.763436 180 180 180
0.229271 0.125535 1.187568 180 180 180
-0.001338 0.011989 0.965505 180 180 180
-0.030699 0.131282 0.669050 180 180 180
-0.029520 0.300951 0.833420 180 180 180
0.246244 0.175077 0.580546 180 180 180
0.448822 -0.301962 1.371053 180 180 180
0.332894 0.170897 0.757097 180 180 180
0.239853 -0.131136 1.120957 180 180 180
0.015995 0.243748 1.102203 180 180 180
-0.128630 -0.135319 1.052988 180 180 180
0.027314 -0.264189 0.991939 180 180 180
0.178567 0.054607 0.879316 180 180 180
0.056390 0.156732 0.657338 180 180 180
0.135381 -0.146946 0.920843 180 180 180
0.032644 -0.243849 1.260608 180 180 180
-0.051923 -0.193017 1.213603 180 180 180
-0.137527 -0.264700 0.899224 180 180 180
0.166041 -0.124312 1.001827 180 180 180
0.220486 0.012382 1.062705 180 180 180
-0.069019 -0.012821 0.911629 180 180 180
0.231606 -0.147189 0.657879 180 180 180
-0.127832 -0.249467 0.825302 180 180 180
0.169098 0.145614 1.045431 180 180 180
-0.066280 -0.230777 0.687685 180 180 180
0.424012 -0.016863 1.159696 180 180 180
0.166345 0.012096 1.070224 180 180 180
0.098137 0.256801 0.997871 180 180 180
-0.147266 -0.051816 0.755936 180 180 180
0.154134 0.022097 0.890379 180 180 180
-0.298012 0.064927 0.764496 180 180 180
0.105109 -0.124435 0.961038 180 180 180
-0.100662 -0.107433 0.776702 180 180 180
0.055913 0.211660 1.414922 180 180 180
-0.060128 0.196721 1.227979 180 180 180
-0.291881 0.086383 0.956630 180 180 180
-0.063345 -0.117227 1.067527 180 180 180
-0.211898 -0.218469 0.832387 180 180 180
0.121896 0.122233 0.765502 180 180 180
-0.264775 -0.130154 0.919522 180 180 180
0.249776 -0.113382 0.754366 180 180 180
0.305266 0.207353 0.504545 180 180 180
0.298241 0.291643 0.658761 180 180 180
0.386582 -0.113948 0.632102 180 180 180
-0.014855 -0.291681 0.759345 180 180 180
0.498164 -0.038735 0.700515 180 180 180
0.256731 -0.309855 0.555106 180 180 180
0.437184 0.345502 0.879881 180 180 180
0.068751 0.183113 0.467256 180 180 180
0.434695 -0.014176 0.752639 180 180 180
0.587439 -0.386670 0.501831 180 180 180
0.223454 -0.352884 0.614295 180 180 180
0.460597 -0.415341 0.838380 180 180 180
0.006766 0.015370 0.222043 180 180 180
-0.395536 -0.199883 0.932839 180 180 180
-0.295668 -0.209434 0.604802 180 180 180
-0.277895 0.016404 1.125686 180 180 180
-0.376504 0.218871 0.891466 180 180 180
-0.158948 -0.272452 0.886985 180 180 180
-0.247940 0.164697 0.501383 180 180 180
-0.224990 -0.002035 0.472976 180 180 180
0.231723 -0.360413 0.476624 180 180 180
-0.201868 -0.232071 0.492664 180 180 180
-0.167549 -0.248734 0.649791 180 180 180
-0.105340 0.209786 0.366598 180 180 180
-0.054636 -0.317907 0.806456 180 180 180
-0.143110 0.276390 0.581726 180 180 180
-0.131116 0.131438 -0.132548 180 180 180
-0.145689 0.289791 0.607194 180 180 180
0.121204 -0.166727 0.400115 180 180 180
-0.103349 -0.321772 0.616417 180 180 180
0.064454 -0.318428 0.434067 180 180 180
-0.210642 0.207604 0.517499 180 180 180
-0.151881 -0.208806 0.316684 180 180 180
-0.084805 -0.191010 0.454804 180 180 180
0.165002 -0.276006 0.420100 180 180 180
-0.019744 -0.219796 0.461957 180 180 180
-0.213265 -0.288296 0.715447 180 180 180
-0.403008 0.195846 0.970458 180 180 180
-0.220937 -0.306310 0.936014 180 180 180
-0.478790 0.242544 0.997874 180 180 180
-0.467380 0.300988 0.970382 180 180 180
-0.419788 -0.063553 0.703516 180 180 180
-0.207606 -0.314111 0.792604 180 180 180
-0.367806 -0.366425 0.553817 180 180 180
-0.487274 -0.356908 0.706984 180 180 180
-0.529632 0.222307 0.933850 180 180 180
-0.065726 -0.018998 1.340312 180 180 180
-0.476137 0.120920 1.154666 180 180 180
-0.547124 0.161773 1.367458 180 180 180
-0.541564 0.263480 1.238387 180 180 180
-0.059218 -0.369544 1.209829 180 180 180
-0.306544 -0.104139 1.370770 180 180 180
