ply
format ascii 1.0
element vertex 168
property float x
property float y
property float z
property uchar red
property uchar green
property uchar blue
end_header
-63.012532 -45.026603 332.540070 180 180 180
-52.957793 -38.962550 293.846680 180 180 180
-43.259305 -33.348234 254.673028 180 180 180
-88.001916 -57.895912 445.901840 180 180 180
-103.239562 -66.007536 512.907118 180 180 180
-51.170502 -37.073227 293.324786 180 180 180
-59.164349 -41.217780 329.383673 180 180 180
-55.394393 -38.917279 315.088213 180 180 180
-66.983302 -44.963413 367.061404 180 180 180
-57.642622 -39.648771 328.628995 180 180 180
-47.532283 -33.957907 286.539809 180 180 180
-57.672524 -39.163506 332.685662 180 180 180
-47.059486 -33.245719 288.066124 180 180 180
-88.425849 -55.018821 472.057412 180 180 180
-62.082740 -40.729324 358.220521 180 180 180
-76.951215 -48.298814 426.362199 180 180 180
-75.086499 -46.851586 421.711644 180 180 180
-57.442765 -37.358279 344.851974 180 180 180
-92.969320 -55.548415 506.816925 180 180 180
-60.712509 -38.504882 363.894821 180 180 180
-84.214251 -50.308587 472.850409 180 180 180
-20.318256 -17.292333 183.723461 180 180 180
-58.630760 -36.455829 362.098084 180 180 180
-42.821027 -28.195683 291.289727 180 180 180
-83.031012 -48.133831 479.734591 180 180 180
-57.468896 -35.009311 363.468691 180 180 180
-44.030039 -28.044604 302.836590 180 180 180
-47.921748 -29.708837 323.157620 180 180 180
-49.710979 -30.316947 333.729734 180 180 180
-58.705750 -34.434640 378.569147 180 180 180
-63.394580 -36.410423 403.279451 180 180 180
-45.123528 -27.257801 318.371903 180 180 180
-25.882488 -17.738001 228.003386 180 180 180
-71.400031 -39.284722 449.376006 180 180 180
-54.169169 -30.727703 368.721850 180 180 180
-76.460335 -41.022335 479.135891 180 180 180
-52.906447 -29.519743 367.360982 180 180 180
-90.043016 -46.553060 552.148017 180 180 180
-66.605441 -35.280345 439.653173 180 180 180
-62.529352 -33.037572 422.285277 180 180 180
-48.650141 -26.319688 355.946771 180 180 180
-42.166111 -22.904728 327.117030 180 180 180
-31.400314 -17.638675 276.089413 180 180 180
-69.780162 -34.440635 473.419951 180 180 180
-37.652806 -19.861272 312.269785 180 180 180
-37.244678 -19.390622 312.458333 180 180 180
-47.155951 -23.405708 365.954286 180 180 180
-55.632041 -26.540884 414.036576 180 180 180
-46.518371 -22.294484 369.188775 180 180 180
-61.564341 -28.320768 450.937600 180 180 180
-41.053740 -19.326145 345.604274 180 180 180
-27.728692 -13.318957 278.453074 180 180 180
-46.202979 -20.612481 379.655092 180 180 180
-30.987069 -14.071613 300.483319 180 180 180
-75.534907 -31.723250 543.960964 180 180 180
-45.180913 -19.130666 382.501410 180 180 180
-41.624645 -17.361853 365.877297 180 180 180
-48.245793 -19.604994 405.053722 180 180 180
-42.978289 -17.178651 378.913385 180 180 180
-66.724736 -25.979525 513.491276 180 180 180
-51.996713 -19.881722 435.036265 180 180 180
-40.608894 -15.178340 374.274894 180 180 180
-39.628089 -14.444545 371.616833 180 180 180
-42.824108 -15.256455 392.649818 180 180 180
-15.807866 -5.018041 241.310440 180 180 180
-28.569657 -9.337480 316.846773 180 180 180
-36.702166 -11.692136 368.093582 180 180 180
-30.612683 -9.185490 335.540152 180 180 180
-45.011370 -13.805092 422.759840 180 180 180
-52.126603 -15.825972 467.921022 180 180 180
-59.883306 -17.684003 519.825818 180 180 180
-41.801759 -11.214101 415.538407 180 180 180
-32.102798 -7.634568 360.452321 180 180 180
-22.017482 -4.016692 302.362735 180 180 180
-27.359002 -5.354131 337.660757 180 180 180
-53.620511 -13.174220 501.498022 180 180 180
-50.675491 -11.760376 487.331480 180 180 180
-40.094214 -7.792113 427.702813 180 180 180
-33.496351 -5.397765 389.909755 180 180 180
-45.759083 -8.504099 470.683726 180 180 180
-60.622086 -11.899916 571.386805 180 180 180
-28.885948 -2.574688 372.504731 180 180 180
-46.087551 -6.786723 486.944277 180 180 180
-36.188412 -3.638303 426.758977 180 180 180
-32.871370 -2.297931 408.828749 180 180 180
-46.402767 -5.260222 501.609769 180 180 180
-24.989154 0.599230 363.969948 180 180 180
-42.937006 -3.025842 489.397949 180 180 180
-29.638761 0.641107 404.139353 180 180 180
-27.475655 1.616146 393.238136 180 180 180
-26.515161 2.305767 390.408260 180 180 180
-36.071417 0.728513 459.961607 180 180 180
-48.823297 -1.401267 552.528906 180 180 180
-23.280728 4.414999 379.210784 180 180 180
-27.636931 4.039813 413.607174 180 180 180
-27.961232 4.491573 419.926594 180 180 180
-35.643792 3.604948 478.838870 180 180 180
-31.334594 4.948210 452.423086 180 180 180
-18.881605 7.622029 366.633360 180 180 180
-9.951552 9.554296 305.248983 180 180 180
-31.062668 6.694648 463.781147 180 180 180
-22.901898 8.813083 410.409754 180 180 180
-20.094214 9.741522 393.619541 180 180 180
-15.534706 10.862527 363.326775 180 180 180
-14.848217 11.451532 362.057970 180 180 180
-20.140770 11.355893 406.667155 180 180 180
-29.656439 10.896247 484.637812 180 180 180
-25.257953 12.326746 458.127128 180 180 180
-17.126153 13.656961 398.846373 180 180 180
-26.010763 13.532976 474.033658 180 180 180
-9.261712 15.638890 346.970844 180 180 180
-26.290436 15.486105 491.709322 180 180 180
-15.809495 16.973204 413.532505 180 180 180
-11.021595 17.775176 378.776261 180 180 180
-21.922489 18.043350 474.301789 180 180 180
-35.514612 19.030566 598.412851 180 180 180
-22.722620 19.493645 492.502414 180 180 180
-17.092540 20.194962 449.767647 180 180 180
-14.497751 21.141061 434.940086 180 180 180
-27.365984 22.586043 556.425741 180 180 180
-23.796263 23.491494 532.986493 180 180 180
-2.424335 22.969974 345.790229 180 180 180
-24.613292 25.277544 553.965154 180 180 180
-8.924182 24.731186 415.282935 180 180 180
-19.593064 26.437845 520.065169 180 180 180
-2.574404 25.466203 366.624807 180 180 180
-8.343081 26.813103 426.612053 180 180 180
0.088076 26.427674 351.343389 180 180 180
-3.113664 27.548534 387.555393 180 180 180
-11.636340 29.584467 476.554824 180 180 180
-7.389130 29.705311 441.094848 180 180 180
-11.568674 31.252824 489.042058 180 180 180
-4.177311 30.668155 421.109361 180 180 180
-31.343789 37.344473 705.898216 180 180 180
-7.882067 33.536555 475.327581 180 180 180
6.807245 30.765314 327.743219 180 180 180
7.159966 31.350796 329.306585 180 180 180
-16.423638 38.774067 589.381765 180 180 180
-3.414551 35.918618 455.697168 180 180 180
-8.757533 38.464093 521.381725 180 180 180
4.089696 35.254835 386.184746 180 180 180
-10.818560 41.254642 560.809398 180 180 180
4.172204 37.370820 402.042024 180 180 180
6.037998 37.504631 387.102274 180 180 180
4.838659 38.860926 408.002794 180 180 180
-6.125622 44.503627 546.062661 180 180 180
5.880938 40.222129 409.733309 180 180 180
5.393584 41.387171 423.035508 180 180 180
8.634243 40.740319 390.200128 180 180 180
-2.452696 47.356485 536.934133 180 180 180
4.327480 44.951864 460.091651 180 180 180
12.138814 41.596031 366.878177 180 180 180
11.606587 42.840337 381.181970 180 180 180
10.428517 44.541431 404.596553 180 180 180
10.047045 45.817035 417.854141 180 180 180
10.183079 47.435994 429.361523 180 180 180
9.915603 48.740697 441.871723 180 180 180
12.910537 48.332951 413.008659 180 180 180
11.862518 50.261637 437.095623 180 180 180
12.039230 52.508825 453.144374 180 180 180
10.435155 55.273383 488.474560 180 180 180
21.848335 46.440455 321.611304 180 180 180
19.465536 49.726567 367.749629 180 180 180
15.025990 55.726206 452.723385 180 180 180
19.969212 52.194365 382.759641 180 180 180
18.989469 54.431632 408.674096 180 180 180
14.759645 60.537170 492.603283 180 180 180
13.631044 64.691531 534.680625 180 180 180
